<svg width="1110" height="256" viewBox="0 0 1110 256" fill="none" xmlns="http://www.w3.org/2000/svg">
<path d="M352.575 190.123H380.886V101.35H413.141V78.5376H320.397V101.35H352.575V190.123ZM423.352 190.123H450.734V144.577C450.734 132.668 458.237 125.786 471.077 125.786C474.945 125.786 478.89 126.327 482.526 127.255V104.134C479.896 103.206 476.57 102.742 473.244 102.742C462.26 102.742 454.679 108.232 452.204 117.743H450.734V104.056H423.352V190.123ZM517.721 191.438C528.705 191.438 537.909 186.798 541.7 179.452H543.169V190.123H570.088V131.431C570.088 112.872 556.552 102.046 532.804 102.046C509.522 102.046 494.67 112.485 493.123 128.338L493.046 129.265H517.876L518.03 128.879C519.655 124.549 524.064 122.151 531.257 122.151C538.838 122.151 543.169 125.631 543.169 131.431V138.158L524.373 139.241C502.173 140.633 489.951 149.68 489.951 165.301V165.455C489.951 181.153 501.245 191.438 517.721 191.438ZM516.328 163.523V163.367C516.328 158.264 520.583 155.016 528.705 154.475L543.169 153.547V159.192C543.169 166.615 536.44 172.338 527.777 172.338C520.892 172.338 516.328 168.935 516.328 163.523ZM604.665 92.5342C612.632 92.5342 619.207 86.2707 619.207 78.306C619.207 70.3414 612.632 64 604.665 64C596.698 64 590.122 70.3414 590.122 78.306C590.122 86.2707 596.698 92.5342 604.665 92.5342ZM590.896 190.123H618.355V104.056H590.896V190.123ZM639.781 190.123H667.167V140.942C667.167 131.044 672.421 124.316 681.319 124.316C690.6 124.316 694.857 130.194 694.857 140.633V190.123H722.237V134.524C722.237 113.877 712.263 102.046 693.154 102.046C681.009 102.046 672.349 108.077 668.632 117.512H667.167V104.056H639.781V190.123ZM756.58 92.5342C764.547 92.5342 771.128 86.2707 771.128 78.306C771.128 70.3414 764.547 64 756.58 64C748.613 64 742.039 70.3414 742.039 78.306C742.039 86.2707 748.613 92.5342 756.58 92.5342ZM742.811 190.123H770.276V104.056H742.811V190.123ZM828.29 192.134C851.649 192.134 867.735 180.689 867.735 162.826V162.749C867.735 149.835 859.616 142.566 841.821 139.009L826.97 136.071C818.771 134.369 816.144 132.127 816.144 128.26V128.106C816.144 123.311 820.705 120.45 827.517 120.45C835.095 120.45 839.352 124.471 840.197 128.028L840.356 128.57H865.418V128.183C864.95 114.418 852.422 102.046 827.517 102.046C804.389 102.046 789.689 112.794 789.689 129.961V130.039C789.689 143.185 798.197 151.845 814.831 155.171L829.682 158.109C837.491 159.733 840.435 162.053 840.435 166.074V166.151C840.435 170.791 835.715 173.652 828.362 173.652C820.395 173.652 816.065 170.327 814.441 165.919L814.29 165.455H787.676V165.997C789.379 180.999 802.765 192.134 828.29 192.134ZM923.201 190.278C928.382 190.278 933.412 189.814 936.27 189.196V169.631C934.257 169.863 932.561 169.94 929.386 169.94C922.27 169.94 919.023 166.848 919.023 160.352V124.162H936.27V104.056H919.023V84.3379H891.564V104.056H878.409V124.162H891.564V166.538C891.564 183.396 900.534 190.278 923.201 190.278ZM977.656 191.438C988.64 191.438 997.841 186.798 1001.63 179.452H1003.1V190.123H1030.02V131.431C1030.02 112.872 1016.48 102.046 992.739 102.046C969.452 102.046 954.6 112.485 953.056 128.338L952.976 129.265H977.808L977.967 128.879C979.59 124.549 984 122.151 991.188 122.151C998.772 122.151 1003.1 125.631 1003.1 131.431V138.158L984.303 139.241C962.105 140.633 949.887 149.68 949.887 165.301V165.455C949.887 181.153 961.181 191.438 977.656 191.438ZM976.264 163.523V163.367C976.264 158.264 980.515 155.016 988.64 154.475L1003.1 153.547V159.192C1003.1 166.615 996.376 172.338 987.709 172.338C980.825 172.338 976.264 168.935 976.264 163.523ZM1050.83 190.123H1078.21V144.577C1078.21 132.668 1085.72 125.786 1098.55 125.786C1102.42 125.786 1106.37 126.327 1110 127.255V104.134C1107.37 103.206 1104.05 102.742 1100.72 102.742C1089.74 102.742 1082.16 108.232 1079.68 117.743H1078.21V104.056H1050.83V190.123Z" fill="#1D1D1F"/>
<path fill-rule="evenodd" clip-rule="evenodd" d="M166.634 97.7831L134.809 0L102.985 97.7831H0L83.3167 158.217L51.4928 256L134.809 195.567L218.126 256L186.302 158.217L269.619 97.7831H166.634ZM231.476 110.156H157.629L134.809 40.0391L111.989 110.156H38.1423L97.8857 153.491L75.0658 223.608L134.809 180.273L194.553 223.608L171.733 153.491L231.476 110.156Z" fill="#273C75"/>
<path fill-rule="evenodd" clip-rule="evenodd" d="M152.213 117.011L134.194 61.5383L116.175 117.011H57.8632L105.038 151.296L87.019 206.769L134.194 172.485L181.368 206.769L163.349 151.296L210.524 117.011H152.213ZM172.523 129.363H143.242L134.194 101.507L125.146 129.363H95.8652L119.554 146.578L110.506 174.434L134.194 157.218L157.883 174.434L148.834 146.578L172.523 129.363Z" fill="#E2383F"/>
<path fill-rule="evenodd" clip-rule="evenodd" d="M134.809 119.385L130.014 134.428H114.496L127.05 143.725L122.255 158.769L134.809 149.472L147.364 158.769L142.568 143.725L155.123 134.428H139.605L134.809 119.385Z" fill="#FBB03B"/>
</svg>
